<svg xmlns="http://www.w3.org/2000/svg" viewBox="0 0 512 512">
  <defs>
    <linearGradient id="bg" x1="0%" y1="0%" x2="100%" y2="100%">
      <stop offset="0%" stop-color="#16365c" />
      <stop offset="100%" stop-color="#2a9ca0" />
    </linearGradient>
    <linearGradient id="accent" x1="0%" y1="0%" x2="100%" y2="100%">
      <stop offset="0%" stop-color="#ff8d2a" />
      <stop offset="100%" stop-color="#ffd077" />
    </linearGradient>
  </defs>
  <rect width="512" height="512" rx="112" fill="url(#bg)" />
  <circle cx="256" cy="176" r="88" fill="rgba(255,255,255,0.08)" />
  <path d="M149 128h128c54 0 93 31 93 81 0 35-18 58-47 70 39 11 64 39 64 84 0 61-47 101-117 101H149V128zm109 126c28 0 45-14 45-37 0-22-17-35-45-35h-39v72h39zm11 152c34 0 54-16 54-44 0-27-20-42-54-42h-50v86h50z" fill="#fefaf3" />
  <path d="M354 118c-16 18-22 42-20 69 28 1 53-8 72-25-2-24-17-39-52-44z" fill="url(#accent)" />
</svg>
