<svg xmlns="http://www.w3.org/2000/svg" viewBox="0 0 512 512">
  <defs>
    <linearGradient id="bg" x1="0%" y1="0%" x2="100%" y2="100%">
      <stop offset="0%" stop-color="#0d2342" />
      <stop offset="100%" stop-color="#2f7de1" />
    </linearGradient>
    <linearGradient id="sun" x1="0%" y1="0%" x2="100%" y2="100%">
      <stop offset="0%" stop-color="#ff8d2a" />
      <stop offset="100%" stop-color="#ffd077" />
    </linearGradient>
  </defs>
  <rect width="512" height="512" rx="128" fill="url(#bg)" />
  <circle cx="364" cy="140" r="54" fill="url(#sun)" />
  <path d="M96 338c43-18 86-42 128-72 31-22 65-49 99-84 37 54 76 104 117 150H96v6z" fill="rgba(255,255,255,0.12)" />
  <path d="M150 116h128c54 0 93 31 93 81 0 35-18 58-47 70 39 11 64 39 64 84 0 61-47 101-117 101H150V116zm109 126c28 0 45-14 45-37 0-22-17-35-45-35h-39v72h39zm11 152c34 0 54-16 54-44 0-27-20-42-54-42h-50v86h50z" fill="#fffaf2" />
</svg>
